<?xml version="1.0" encoding="UTF-8" standalone="no"?>
<!DOCTYPE svg PUBLIC "-//W3C//DTD SVG 1.1//EN" "http://www.w3.org/Graphics/SVG/1.1/DTD/svg11.dtd">
<svg width="100%" height="100%" viewBox="0 0 100 100" version="1.1" xmlns="http://www.w3.org/2000/svg" xmlns:xlink="http://www.w3.org/1999/xlink" xml:space="preserve" xmlns:serif="http://www.serif.com/" style="fill-rule:evenodd;clip-rule:evenodd;stroke-linejoin:round;stroke-miterlimit:2;">
    <g transform="matrix(1,0,0,1,-500,-250)">
        <g id="AddFilter" transform="matrix(1,0,0,1,500.045,250.043)">
            <rect x="0" y="0" width="100" height="100" style="fill:none;"/>
            <g transform="matrix(1,0,0,1,-28.0071,49.7119)">
                <path d="M72.07,30.663C71.32,28.538 70.038,26.819 68.226,25.507C66.413,24.194 64.32,23.538 61.945,23.538C58.945,23.538 56.382,24.569 54.257,26.632C52.132,28.694 51.07,31.226 51.07,34.226L51.07,40.226L35.882,40.226C33.757,40.226 31.913,39.444 30.351,37.882C28.788,36.319 28.007,34.476 28.007,32.351L28.007,17.163L34.007,17.163C37.007,17.163 39.538,16.101 41.601,13.976C43.663,11.851 44.695,9.288 44.695,6.288C44.695,3.288 43.663,0.726 41.601,-1.399C39.538,-3.524 37.007,-4.587 34.007,-4.587L28.007,-4.587L28.007,-19.774C28.007,-21.899 28.788,-23.743 30.351,-25.306C31.913,-26.868 33.757,-27.649 35.882,-27.649L52.007,-27.649L52.007,-33.649C52.007,-36.399 52.976,-38.774 54.913,-40.774C56.851,-42.774 59.195,-43.774 61.945,-43.774C64.695,-43.774 67.038,-42.774 68.976,-40.774C70.913,-38.774 71.882,-36.399 71.882,-33.649L71.882,-27.649L88.007,-27.649C90.132,-27.649 91.976,-26.868 93.538,-25.306C95.101,-23.743 95.882,-21.899 95.882,-19.774L95.882,-3.649L101.882,-3.649C104.632,-3.649 107.007,-2.681 109.007,-0.743C111.007,1.194 112.007,3.538 112.007,6.288C112.007,7.538 111.757,8.726 111.257,9.851C106.757,6.101 101.632,4.226 95.882,4.226C91.632,4.226 87.663,5.319 83.976,7.507C80.288,9.694 77.351,12.632 75.163,16.319C72.976,20.007 71.882,23.976 71.882,28.226C71.882,29.351 71.945,30.163 72.07,30.663ZM91.945,12.288L91.945,24.288L79.945,24.288L79.945,32.351L91.945,32.351L91.945,44.351L100.007,44.351L100.007,32.351L112.007,32.351L112.007,24.288L100.007,24.288L100.007,12.288L91.945,12.288Z" style="fill-rule:nonzero;"/>
            </g>
        </g>
    </g>
</svg>
