<?xml version="1.0" encoding="UTF-8" standalone="no"?>
<!DOCTYPE svg PUBLIC "-//W3C//DTD SVG 1.1//EN" "http://www.w3.org/Graphics/SVG/1.1/DTD/svg11.dtd">
<svg width="100%" height="100%" viewBox="0 0 100 100" version="1.1" xmlns="http://www.w3.org/2000/svg" xmlns:xlink="http://www.w3.org/1999/xlink" xml:space="preserve" xmlns:serif="http://www.serif.com/" style="fill-rule:evenodd;clip-rule:evenodd;stroke-linejoin:round;stroke-miterlimit:2;">
    <g transform="matrix(1,0,0,1,-250,-250)">
        <g id="AddFolder" transform="matrix(1,0,0,1,249.957,250.043)">
            <rect x="0" y="0" width="100" height="100" style="fill:none;"/>
            <g transform="matrix(1,0,0,1,-260.019,-250.043)">
                <path d="M323.73,307.921L323.73,319.921L311.73,319.921L311.73,327.983L323.73,327.983L323.73,339.983L331.792,339.983L331.792,327.983L343.792,327.983L343.792,319.921L331.792,319.921L331.792,307.921L323.73,307.921ZM339.894,280.168L339.894,303.418C336.269,301.168 332.3,300.043 327.988,300.043C323.675,300.043 319.675,301.137 315.988,303.325C312.3,305.512 309.363,308.45 307.175,312.137C304.988,315.825 303.894,319.793 303.894,324.043C303.894,325.168 304.019,326.543 304.269,328.168L267.894,328.168C265.769,328.168 263.925,327.387 262.363,325.825C260.8,324.262 260.019,322.356 260.019,320.106L260.019,272.106C260.019,269.856 260.8,267.95 262.363,266.387C263.925,264.825 265.769,264.043 267.894,264.043L291.894,264.043L299.957,272.106L332.019,272.106C334.144,272.106 335.988,272.887 337.55,274.45C339.113,276.012 339.894,277.918 339.894,280.168Z" style="fill-rule:nonzero;"/>
            </g>
        </g>
    </g>
</svg>
