<svg xmlns="http://www.w3.org/2000/svg" xmlns:xlink="http://www.w3.org/1999/xlink" width="100%" height="100%" version="1.1" viewBox="0 0 100 100" xml:space="preserve" style="fill-rule:evenodd;clip-rule:evenodd;stroke-linejoin:round;stroke-miterlimit:2"><g transform="matrix(1,0,0,1,-375,-125)"><g id="CloseBox" transform="matrix(1,0,0,1,375,125)"><rect width="100" height="100" x="0" y="0" style="fill:none"/><g><path d="M95.882,-35.712L40.007,-35.712C37.757,-35.712 35.851,-34.931 34.288,-33.368C32.726,-31.806 31.945,-29.899 31.945,-27.649L31.945,28.226C31.945,30.476 32.726,32.382 34.288,33.944C35.851,35.507 37.757,36.288 40.007,36.288L95.882,36.288C98.132,36.288 100.038,35.507 101.601,33.944C103.163,32.382 103.945,30.476 103.945,28.226L103.945,-27.649C103.945,-29.899 103.163,-31.806 101.601,-33.368C100.038,-34.931 98.132,-35.712 95.882,-35.712ZM82.382,20.351L67.945,5.913L53.507,20.351L47.882,14.726L62.32,0.288L47.882,-14.149L53.507,-19.774L67.945,-5.337L82.382,-19.774L88.007,-14.149L73.57,0.288L88.007,14.726L82.382,20.351Z" transform="matrix(1,0,0,1,-31.9446,49.7119)" style="fill-rule:nonzero"/></g></g></g></svg>