<?xml version="1.0" encoding="UTF-8" standalone="no"?>
<!DOCTYPE svg PUBLIC "-//W3C//DTD SVG 1.1//EN" "http://www.w3.org/Graphics/SVG/1.1/DTD/svg11.dtd">
<svg width="100%" height="100%" viewBox="0 0 100 100" version="1.1" xmlns="http://www.w3.org/2000/svg" xmlns:xlink="http://www.w3.org/1999/xlink" xml:space="preserve" xmlns:serif="http://www.serif.com/" style="fill-rule:evenodd;clip-rule:evenodd;stroke-linejoin:round;stroke-miterlimit:2;">
    <g transform="matrix(1,0,0,1,-750,-250)">
        <g id="FilterSettings" transform="matrix(1,0,0,1,750.045,250.043)">
            <rect x="0" y="0" width="100" height="100" style="fill:none;"/>
            <g transform="matrix(1,0,0,1,-258,-375.022)">
                <path d="M337.018,453.273L337.018,450.03L340.408,447.525C340.9,447.132 341.047,446.837 340.85,446.641L337.608,441.335C337.608,441.138 337.313,441.04 336.724,441.04L332.892,442.514C331.614,441.728 330.681,441.236 330.091,441.04L329.502,436.913C329.502,436.717 329.428,436.569 329.281,436.471C329.133,436.373 328.961,436.324 328.765,436.324L322.575,436.324C321.887,436.324 321.543,436.52 321.543,436.913L320.954,441.04L318.448,442.514L314.616,441.04C314.223,441.04 313.928,441.138 313.732,441.335L310.637,446.641C310.637,447.034 310.735,447.328 310.932,447.525L314.321,450.03L314.321,453.273L310.932,455.778C310.538,456.171 310.44,456.466 310.637,456.663L313.732,462.116C313.928,462.312 314.223,462.411 314.616,462.411L318.448,460.789C319.234,461.477 320.069,462.018 320.954,462.411L321.543,466.39C322.034,466.881 322.378,467.127 322.575,467.127L328.765,467.127C328.961,467.127 329.133,467.053 329.281,466.906C329.428,466.758 329.502,466.587 329.502,466.39L330.091,462.411L332.597,460.789L336.429,462.116C336.822,462.116 337.117,461.968 337.313,461.674L340.408,456.368C340.605,456.27 340.703,456.147 340.703,455.999C340.703,455.852 340.605,455.778 340.408,455.778L337.018,453.273ZM302.063,455.397C301.313,453.272 300.031,451.553 298.219,450.24C296.406,448.928 294.313,448.272 291.938,448.272C288.938,448.272 286.375,449.303 284.25,451.365C282.125,453.428 281.063,455.959 281.063,458.959L281.063,464.959L265.875,464.959C263.75,464.959 261.906,464.178 260.344,462.615C258.781,461.053 258,459.209 258,457.084L258,441.897L264,441.897C267,441.897 269.531,440.834 271.594,438.709C273.656,436.584 274.688,434.022 274.688,431.022C274.688,428.022 273.656,425.459 271.594,423.334C269.531,421.209 267,420.147 264,420.147L258,420.147L258,404.959C258,402.834 258.781,400.99 260.344,399.428C261.906,397.865 263.75,397.084 265.875,397.084L282,397.084L282,391.084C282,388.334 282.969,385.959 284.906,383.959C286.844,381.959 289.188,380.959 291.938,380.959C294.688,380.959 297.031,381.959 298.969,383.959C300.906,385.959 301.875,388.334 301.875,391.084L301.875,397.084L318,397.084C320.125,397.084 321.969,397.865 323.531,399.428C325.094,400.99 325.875,402.834 325.875,404.959L325.875,421.084L331.875,421.084C334.625,421.084 337,422.053 339,423.99C341,425.928 342,428.272 342,431.022C342,432.272 341.75,433.459 341.25,434.584C336.75,430.834 331.625,428.959 325.875,428.959C321.625,428.959 317.656,430.053 313.969,432.24C310.281,434.428 307.344,437.365 305.156,441.053C302.969,444.74 301.875,448.709 301.875,452.959C301.875,454.084 301.938,454.897 302.063,455.397ZM325.375,456.073C324.098,456.073 322.992,455.606 322.059,454.673C321.126,453.74 320.659,452.634 320.659,451.357C320.659,450.08 321.126,448.974 322.059,448.041C322.992,447.107 324.098,446.641 325.375,446.641C326.652,446.641 327.758,447.107 328.691,448.041C329.625,448.974 330.091,450.08 330.091,451.357C330.091,452.634 329.625,453.74 328.691,454.673C327.758,455.606 326.652,456.073 325.375,456.073Z" style="fill-rule:nonzero;"/>
            </g>
        </g>
    </g>
</svg>
