<?xml version="1.0" encoding="UTF-8" standalone="no"?>
<!DOCTYPE svg PUBLIC "-//W3C//DTD SVG 1.1//EN" "http://www.w3.org/Graphics/SVG/1.1/DTD/svg11.dtd">
<svg width="100%" height="100%" viewBox="0 0 100 100" version="1.1" xmlns="http://www.w3.org/2000/svg" xmlns:xlink="http://www.w3.org/1999/xlink" xml:space="preserve" xmlns:serif="http://www.serif.com/" style="fill-rule:evenodd;clip-rule:evenodd;stroke-linejoin:round;stroke-miterlimit:2;">
    <g transform="matrix(1,0,0,1,-125,-250)">
        <g id="RemoveImage" transform="matrix(1,0,0,1,125,250.043)">
            <rect x="0" y="0" width="100" height="100" style="fill:none;"/>
            <g transform="matrix(1,0,0,1,-31.9446,44.6494)">
                <path d="M40.007,-35.712C37.757,-35.712 35.851,-34.931 34.288,-33.368C32.726,-31.806 31.945,-29.899 31.945,-27.649L31.945,28.226C31.945,30.476 32.726,32.382 34.288,33.944C35.851,35.507 37.757,36.288 40.007,36.288L76.382,36.288C76.132,34.913 76.007,33.601 76.007,32.351C76.007,29.601 76.445,26.913 77.32,24.288L40.007,24.288L53.882,6.288L64.007,18.288L77.882,0.288L86.882,12.101C90.882,9.601 95.257,8.351 100.007,8.351C101.257,8.351 102.57,8.476 103.945,8.726L103.945,-27.649C103.945,-29.899 103.163,-31.806 101.601,-33.368C100.038,-34.931 98.132,-35.712 95.882,-35.712L40.007,-35.712ZM85.757,23.726L94.382,32.351L85.757,40.788L91.382,46.413L100.007,37.976L108.445,46.413L114.07,40.788L105.632,32.351L114.07,23.726L108.445,18.101L100.007,26.726L91.382,18.101L85.757,23.726Z" style="fill-rule:nonzero;"/>
            </g>
        </g>
    </g>
</svg>
