<?xml version="1.0" encoding="UTF-8" standalone="no"?>
<!DOCTYPE svg PUBLIC "-//W3C//DTD SVG 1.1//EN" "http://www.w3.org/Graphics/SVG/1.1/DTD/svg11.dtd">
<svg width="100%" height="100%" viewBox="0 0 100 100" version="1.1" xmlns="http://www.w3.org/2000/svg" xmlns:xlink="http://www.w3.org/1999/xlink" xml:space="preserve" xmlns:serif="http://www.serif.com/" style="fill-rule:evenodd;clip-rule:evenodd;stroke-linejoin:round;stroke-miterlimit:2;">
    <g transform="matrix(1,0,0,1,-375,-250)">
        <g id="RemoveFolder" transform="matrix(1,0,0,1,375,250.043)">
            <rect x="0" y="0" width="100" height="100" style="fill:none;"/>
            <g transform="matrix(1,0,0,1,-384.998,-250.043)">
                <path d="M438.611,315.515L447.236,324.14L438.611,332.578L444.236,338.203L452.861,329.765L461.298,338.203L466.923,332.578L458.486,324.14L466.923,315.515L461.298,309.89L452.861,318.515L444.236,309.89L438.611,315.515ZM464.873,280.168L464.873,303.418C461.248,301.168 457.279,300.043 452.966,300.043C448.654,300.043 444.654,301.137 440.966,303.325C437.279,305.512 434.341,308.45 432.154,312.137C429.966,315.825 428.873,319.793 428.873,324.043C428.873,325.168 428.998,326.543 429.248,328.168L392.873,328.168C390.748,328.168 388.904,327.387 387.341,325.825C385.779,324.262 384.998,322.356 384.998,320.106L384.998,272.106C384.998,269.856 385.779,267.95 387.341,266.387C388.904,264.825 390.748,264.043 392.873,264.043L416.873,264.043L424.935,272.106L456.998,272.106C459.123,272.106 460.966,272.887 462.529,274.45C464.091,276.012 464.873,277.918 464.873,280.168Z" style="fill-rule:nonzero;"/>
            </g>
        </g>
    </g>
</svg>
